<?xml version="1.0" encoding="UTF-8"?>
<svg width="200" height="400" viewBox="0 0 200 400" fill="none" xmlns="http://www.w3.org/2000/svg">
  <path d="M100 20C100 20 150 50 180 100C210 150 190 250 150 300C110 350 50 380 50 380" stroke="#4CAF50" stroke-width="4"/>
  <path d="M100 20L90 40L95 30L85 50L95 40L85 60L95 50L90 70L100 60L105 80L110 60L120 70L115 50L125 60L115 40L125 50L130 30L120 40L110 20Z" fill="#4CAF50"/>
  <path d="M150 100L140 120L145 110L135 130L145 120L135 140L145 130L140 150L150 140L155 160L160 140L170 150L165 130L175 140L165 120L175 130L180 110L170 120L160 100Z" fill="#2196F3"/>
  <path d="M180 200L170 220L175 210L165 230L175 220L165 240L175 230L170 250L180 240L185 260L190 240L200 250L195 230L205 240L195 220L205 230L210 210L200 220L190 200Z" fill="#FFC107"/>
  <path d="M150 300L140 320L145 310L135 330L145 320L135 340L145 330L140 350L150 340L155 360L160 340L170 350L165 330L175 340L165 320L175 330L180 310L170 320L160 300Z" fill="#FF5722"/>
</svg>
